<svg width="30" height="30" viewBox="0 0 30 30" fill="none" xmlns="http://www.w3.org/2000/svg">
<path d="M25.2281 0H4.77319C4.02 0 3.40979 0.610851 3.40979 1.36404V28.6366C3.40979 29.3898 4.02064 30.0006 4.77319 30.0006H25.2281C25.9813 30.0006 26.5915 29.3898 26.5915 28.6366V1.36404C26.5915 0.610851 25.9813 0 25.2281 0ZM23.864 2.72681V6.81766H6.1366V2.72681H23.864ZM6.1366 27.2738V9.54511H23.864V27.2719H6.1366V27.2738Z" fill="white"/>
<path d="M11.0126 10.7515H8.1817C7.80511 10.7515 7.5 11.0572 7.5 11.4332V14.266C7.5 14.6426 7.80574 14.9477 8.1817 14.9477H11.0126C11.3891 14.9477 11.6943 14.6419 11.6943 14.266V11.4332C11.6949 11.056 11.3904 10.7515 11.0126 10.7515Z" fill="white"/>
<path d="M16.4151 10.7515H13.5849C13.2083 10.7515 12.9032 11.0572 12.9032 11.4332V14.266C12.9032 14.6426 13.2083 14.9477 13.5849 14.9477H16.4151C16.7917 14.9477 17.0968 14.6419 17.0968 14.266V11.4332C17.0975 11.056 16.7917 10.7515 16.4151 10.7515Z" fill="white"/>
<path d="M21.8183 10.7515H18.9875C18.6109 10.7515 18.3064 11.0572 18.3064 11.4332V14.266C18.3064 14.6426 18.6115 14.9477 18.9875 14.9477H21.8183C22.1949 14.9477 22.5 14.6419 22.5 14.266V11.4332C22.5 11.056 22.1949 10.7515 21.8183 10.7515Z" fill="white"/>
<path d="M11.0126 16.3117H8.1817C7.80511 16.3117 7.5 16.6168 7.5 16.9928V19.8255C7.5 20.2021 7.80574 20.5066 8.1817 20.5066H11.0126C11.3891 20.5066 11.6943 20.2015 11.6943 19.8255V16.9928C11.6949 16.6155 11.3904 16.3117 11.0126 16.3117Z" fill="white"/>
<path d="M16.4151 16.3117H13.5849C13.2083 16.3117 12.9032 16.6168 12.9032 16.9928V19.8255C12.9032 20.2021 13.2083 20.5066 13.5849 20.5066H16.4151C16.7917 20.5066 17.0968 20.2015 17.0968 19.8255V16.9928C17.0975 16.6155 16.7917 16.3117 16.4151 16.3117Z" fill="white"/>
<path d="M11.0126 21.8719H8.1817C7.80511 21.8719 7.5 22.177 7.5 22.5523V25.3851C7.5 25.763 7.80574 26.0668 8.1817 26.0668H11.0126C11.3891 26.0668 11.6943 25.7611 11.6943 25.3851V22.5523C11.6949 22.1757 11.3904 21.8719 11.0126 21.8719Z" fill="white"/>
<path d="M16.4151 21.8719H13.5849C13.2083 21.8719 12.9032 22.177 12.9032 22.5523V25.3851C12.9032 25.763 13.2083 26.0668 13.5849 26.0668H16.4151C16.7917 26.0668 17.0968 25.7611 17.0968 25.3851V22.5523C17.0975 22.1757 16.7917 21.8719 16.4151 21.8719Z" fill="white"/>
<path d="M21.8183 16.3117H18.9875C18.6109 16.3117 18.3064 16.6168 18.3064 16.9928V25.3851C18.3064 25.763 18.6115 26.0668 18.9875 26.0668H21.8183C22.1949 26.0668 22.5 25.7611 22.5 25.3851V16.9928C22.5 16.6155 22.1949 16.3117 21.8183 16.3117Z" fill="white"/>
</svg>
