<svg width="11" height="19" viewBox="0 0 11 19" fill="none" xmlns="http://www.w3.org/2000/svg">
<path d="M8.256 6.19208C8.256 6.76202 8.71806 7.22408 9.288 7.22408C9.85794 7.22408 10.32 6.76202 10.32 6.19208C10.32 5.04917 9.72887 3.95029 8.69811 3.17726C7.99408 2.64922 7.12782 2.29648 6.192 2.14643V1.032C6.192 0.462061 5.72994 0 5.16 0C4.59006 0 4.128 0.462061 4.128 1.032V2.14643C3.19211 2.29648 2.32585 2.64922 1.62189 3.17726C0.59113 3.95029 0 5.04917 0 6.19208C0 7.33498 0.59113 8.43379 1.62189 9.2069C2.32592 9.73494 3.19218 10.0877 4.128 10.2377V14.3251C2.93914 14.0345 2.064 13.263 2.064 12.3841C2.064 11.8141 1.60194 11.3521 1.032 11.3521C0.462061 11.3521 0 11.8141 0 12.3841C0 13.527 0.59113 14.6258 1.62189 15.3989C2.32592 15.9269 3.19218 16.2797 4.128 16.4297V17.5546C4.128 18.1245 4.59006 18.5866 5.16 18.5866C5.72994 18.5866 6.192 18.1245 6.192 17.5546V16.4297C7.12789 16.2797 7.99415 15.9269 8.69811 15.3989C9.72887 14.6259 10.32 13.527 10.32 12.3841C10.32 11.2412 9.72887 10.1423 8.69811 9.36927C7.99408 8.84123 7.12782 8.48849 6.192 8.33843V4.25109C7.38086 4.5417 8.256 5.31316 8.256 6.19208ZM2.064 6.19208C2.064 5.31316 2.93914 4.54163 4.128 4.25109V8.133C2.93914 7.84252 2.064 7.071 2.064 6.19208ZM8.256 12.3841C8.256 13.263 7.38086 14.0345 6.192 14.3251V10.4432C7.38086 10.7337 8.256 11.5052 8.256 12.3841Z" fill="#3C3D3D"/>
</svg>
