<svg width="30" height="30" viewBox="0 0 30 30" fill="none" xmlns="http://www.w3.org/2000/svg">
<g clip-path="url(#clip0)">
<path d="M13.5547 30C21.0028 30 27.0406 23.9622 27.0406 16.5142C27.0406 14.2225 26.4707 12.0661 25.4634 10.1774C25.3532 10.1931 25.2399 10.1994 25.1297 10.1994C25.0668 10.1994 25.0007 10.1963 24.9346 10.1931L23.2189 10.0609L21.9849 11.2949C22.9261 12.8122 23.4708 14.6002 23.4708 16.5142C23.4708 21.9885 19.0322 26.4271 13.5578 26.4271C8.08357 26.4271 3.64178 21.9885 3.64178 16.5142C3.64178 11.0399 8.08039 6.60129 13.5547 6.60129C15.4718 6.60129 17.2598 7.14589 18.774 8.08713L19.8915 6.96961L19.7404 5.00213C19.7278 4.84474 19.7309 4.68734 19.7467 4.53309C17.8925 3.57296 15.7866 3.02837 13.5515 3.02837C6.10663 3.02837 0.0688477 9.06614 0.0688477 16.5142C0.0688477 23.9622 6.10666 30 13.5547 30Z" fill="white"/>
<path d="M13.5547 13.0294C13.6429 13.0294 13.731 13.0326 13.8192 13.0388L16.3092 10.5488L16.3627 10.4953C15.5096 10.0955 14.5589 9.87199 13.5547 9.87199C9.88732 9.87199 6.91565 12.8437 6.91565 16.511C6.91565 20.1784 9.88732 23.1532 13.5547 23.1532C17.2221 23.1532 20.1938 20.1815 20.1938 16.5142C20.1938 15.51 19.9702 14.5593 19.5704 13.7062L19.517 13.7597L17.0269 16.2497C17.0332 16.3379 17.0363 16.4261 17.0363 16.5141C17.0363 18.4375 15.4781 19.999 13.5515 19.999C11.625 19.999 10.0699 18.4375 10.0699 16.5141C10.0699 14.5908 11.6313 13.0294 13.5547 13.0294Z" fill="white"/>
<path d="M27.4529 4.48898L28.2525 3.6894C28.6177 3.32424 28.6177 2.73557 28.2525 2.37041L27.6984 1.81322C27.5159 1.63064 27.2767 1.53935 27.0406 1.53935C26.8045 1.53935 26.562 1.63064 26.3826 1.81322L25.4666 2.72928L25.2777 0.289612C25.2651 0.110178 25.1171 0 24.9629 0C24.8842 0 24.8055 0.0283316 24.7426 0.0912907L21.1381 3.6957C20.8139 4.01994 20.647 4.47009 20.6817 4.9297L20.6911 5.07135L20.8642 7.32844L19.561 8.63169L17.2158 10.9769L17.1623 11.0304L14.8926 13.3001L13.8853 14.3075C13.753 14.4397 13.6712 14.616 13.6586 14.8017L13.5956 15.5918C13.5579 16.0514 13.923 16.4418 14.3795 16.4418C14.392 16.4418 14.4047 16.4418 14.4204 16.4418L15.2546 16.4008C15.4498 16.3914 15.6355 16.3095 15.7709 16.171L16.7688 15.1731L19.0385 12.9035L19.092 12.8499L21.4372 10.5047L22.8538 9.08814L24.9125 9.24554L25.0038 9.25184C25.0448 9.25498 25.0856 9.25498 25.1235 9.25498C25.539 9.25498 25.9388 9.09129 26.2378 8.79538L29.8391 5.19412C30.0279 5.00525 29.9083 4.67786 29.6408 4.65897L27.4529 4.48898Z" fill="white"/>
</g>
<defs>
<clipPath id="clip0">
<rect width="30" height="30" fill="white"/>
</clipPath>
</defs>
</svg>
