<svg width="21" height="25" viewBox="0 0 21 25" fill="none" xmlns="http://www.w3.org/2000/svg">
<path d="M19.2891 0H1.71094C1.30645 0 0.978516 0.32793 0.978516 0.732422V24.2676C0.978516 24.6721 1.30645 25 1.71094 25H19.2891C19.6936 25 20.0215 24.6721 20.0215 24.2676V0.732422C20.0215 0.32793 19.6936 0 19.2891 0ZM3.9082 23.5352H2.44336V22.0215H3.9082V23.5352ZM3.9082 20.5566H2.44336V19.0918H3.9082V20.5566ZM3.9082 17.627H2.44336V16.1621H3.9082V17.627ZM3.9082 14.6973H2.44336V13.2324H3.9082V14.6973ZM3.9082 11.7676H2.44336V10.3027H3.9082V11.7676ZM3.9082 8.83789H2.44336V7.37305H3.9082V8.83789ZM3.9082 5.9082H2.44336V4.44336H3.9082V5.9082ZM3.9082 2.97852H2.44336V1.46484H3.9082V2.97852ZM15.627 23.5352H5.37305V13.2324H15.627V23.5352ZM15.627 11.7676H5.37305V1.46484H15.627V11.7676ZM18.5566 23.5352H17.0918V22.0215H18.5566V23.5352ZM18.5566 20.5566H17.0918V19.0918H18.5566V20.5566ZM18.5566 17.627H17.0918V16.1621H18.5566V17.627ZM18.5566 14.6973H17.0918V13.2324H18.5566V14.6973ZM18.5566 11.7676H17.0918V10.3027H18.5566V11.7676ZM18.5566 8.83789H17.0918V7.37305H18.5566V8.83789ZM18.5566 5.9082H17.0918V4.44336H18.5566V5.9082ZM18.5566 2.97852H17.0918V1.46484H18.5566V2.97852Z" fill="#D9428A"/>
</svg>
