<svg width="30" height="30" viewBox="0 0 30 30" fill="none" xmlns="http://www.w3.org/2000/svg">
<g clip-path="url(#clip0)">
<path fill-rule="evenodd" clip-rule="evenodd" d="M16.0362 1.14647L29.4962 13.4112C29.9694 13.8425 30.1258 14.5069 29.8948 15.1039C29.6636 15.7009 29.1004 16.0867 28.4602 16.0867H26.31V28.3751C26.31 28.8623 25.915 29.2573 25.4278 29.2573H18.0504C17.5632 29.2573 17.1681 28.8623 17.1681 28.3751V20.9139H12.8321V28.375C12.8321 28.8623 12.437 29.2572 11.9498 29.2572H4.57207C4.08486 29.2572 3.68982 28.8622 3.68982 28.375V16.0867H1.54002C0.899767 16.0867 0.336682 15.701 0.105413 15.1039C-0.125798 14.5069 0.0305299 13.8425 0.503791 13.4112L13.9639 1.14642C14.5544 0.608116 15.4454 0.608057 16.0362 1.14647ZM15 17C16.6569 17 18 15.6569 18 14C18 12.3431 16.6569 11 15 11C13.3431 11 12 12.3431 12 14C12 15.6569 13.3431 17 15 17Z" fill="white"/>
</g>
<defs>
<clipPath id="clip0">
<rect width="30" height="30" fill="white"/>
</clipPath>
</defs>
</svg>
