<svg width="30" height="30" viewBox="0 0 30 30" fill="none" xmlns="http://www.w3.org/2000/svg">
<g clip-path="url(#clip0)">
<path d="M12.5664 13.9464V2.3244C12.5664 1.04185 13.6082 0 14.8908 0C16.1733 0 17.2152 1.04185 17.2152 2.3244V13.9464C17.2152 15.229 16.1733 16.2708 14.8908 16.2708C13.6082 16.2708 12.5664 15.229 12.5664 13.9464ZM24.1044 3.40822C23.3514 2.812 22.2528 2.94285 21.6566 3.69707C21.0604 4.45254 21.19 5.5487 21.9454 6.14615C24.7105 8.32737 26.2955 11.5936 26.2955 15.1092C26.2955 21.3974 21.1789 26.514 14.892 26.514C8.60388 26.514 3.48722 21.3974 3.48722 15.1092C3.48722 11.5949 5.07098 8.32984 7.8336 6.14986C8.58906 5.55364 8.71868 4.45747 8.12245 3.70078C7.52623 2.94532 6.4313 2.81694 5.67337 3.41192C2.06765 6.25725 0 10.5209 0 15.1092C0 23.3206 6.68066 30 14.8908 30C23.1009 30 29.7815 23.3193 29.7815 15.1092C29.7815 10.5185 27.7114 6.25478 24.1044 3.40822Z" fill="white" stroke="#062863"/>
</g>
<defs>
<clipPath id="clip0">
<rect width="30" height="30" fill="white"/>
</clipPath>
</defs>
</svg>
