<svg width="19" height="25" viewBox="0 0 19 25" fill="none" xmlns="http://www.w3.org/2000/svg">
<path d="M16.7744 10.2479H14.9722V5.47227C14.9722 2.45483 12.5173 0 9.50006 0C6.48267 0 4.02783 2.45483 4.02783 5.47227V10.2479H2.22564C1.23184 10.2479 0.42334 11.0564 0.42334 12.0501V23.1977C0.42334 24.1915 1.23184 25 2.22564 25H16.7744C17.7682 25 18.5767 24.1915 18.5767 23.1977V12.0502C18.5767 11.0564 17.7682 10.2479 16.7744 10.2479ZM5.2293 5.47227C5.2293 3.11743 7.14512 1.20156 9.50001 1.20156C11.8548 1.20156 13.7707 3.11743 13.7707 5.47227V10.2479H5.2293V5.47227ZM17.3752 23.1977C17.3752 23.529 17.1056 23.7985 16.7744 23.7985H2.22564C1.89439 23.7985 1.62485 23.529 1.62485 23.1977V12.0502C1.62485 11.7189 1.89439 11.4494 2.22564 11.4494H16.7744C17.1056 11.4494 17.3752 11.7189 17.3752 12.0502V23.1977Z" fill="#1A88E1"/>
</svg>
