<svg width="30" height="30" viewBox="0 0 30 30" fill="none" xmlns="http://www.w3.org/2000/svg">
<g clip-path="url(#clip0)">
<path d="M9 23.3485C8.82527 24.0253 8.46413 24.667 7.93983 25.192C6.72815 26.3938 2.24553 27.8261 1.74457 27.9777C1.54647 28.0361 1.32515 27.9777 1.17372 27.8261C1.02228 27.6744 0.963926 27.4527 1.02225 27.2427C1.17372 26.7527 2.61553 22.2751 3.81548 21.0618C4.33974 20.5368 4.98053 20.1751 5.6563 20L7.3223 21.6685L9 23.3485Z" fill="white"/>
<path d="M10.2219 8.64547C3.97864 8.64547 2.00837 13.9237 1.85028 14.1001C1.71294 14.3722 1.72583 14.6967 1.88632 14.9568C2.04599 15.2169 2.32929 15.3757 2.63485 15.3757C6.24295 15.6947 8.49424 15.8937 8.31435 15.8778L11.3044 8.64535H10.2219V8.64547Z" fill="white"/>
<path d="M14.1219 21.6751C14.1355 21.8552 14.5762 27.6649 14.5477 27.2885C14.5477 27.9431 15.2392 28.3672 15.8234 28.0732C15.9994 27.9154 21.278 25.9075 21.278 19.7015V18.619L14.1219 21.6751Z" fill="white"/>
<path d="M14.8333 22.6744C13.9016 23.1492 12.9697 23.6063 12.0907 24.0458C11.7566 24.2216 11.3523 24.1513 11.0709 23.8876L6.11303 18.9297C5.84936 18.6484 5.77898 18.2441 5.95488 17.91C6.3944 17.031 6.85155 16.0991 7.32616 15.1674C7.60752 14.6223 9.64689 15.8355 9.92825 15.2728L14.7279 20.0725C14.1652 20.3537 15.3784 22.3932 14.8333 22.6744Z" fill="white"/>
<path d="M14.8333 22.6744C13.9016 23.1491 12.9698 23.6063 12.0907 24.0458C11.7566 24.2216 11.3523 24.1513 11.0709 23.8875L8.59204 21.4087L12.3368 17.6815L14.7279 20.0725C14.1653 20.3537 15.3784 22.3932 14.8333 22.6744Z" fill="white"/>
<path d="M29.2674 8.73265C28.4763 11.7567 27.0522 14.218 24.8369 16.3453C22.2525 18.8418 18.1209 21.0219 14.8333 22.6745L11.0885 18.9297L7.32611 15.1674C8.97875 11.8797 11.1589 7.73046 13.6554 5.1637C15.7826 2.9485 18.244 1.52438 21.268 0.733185L23.0436 1.38369C23.0788 2.91323 23.6941 4.3022 24.6963 5.30421C25.6984 6.30634 27.0873 6.92175 28.6169 6.95685L29.2674 8.73265Z" fill="white"/>
<path d="M29.2675 8.73265C28.4763 11.7567 27.0523 14.218 24.837 16.3453C22.2526 18.8418 18.1209 21.0219 14.8333 22.6745L11.0885 18.9297L24.6963 5.30427C25.6984 6.3064 27.0874 6.92181 28.6169 6.95691L29.2675 8.73265Z" fill="white"/>
<path d="M22.2701 7.73047C20.5648 6.02515 17.7694 6.02515 16.064 7.73047C14.3586 9.45348 14.3586 12.2137 16.064 13.9367V13.9543C17.7694 15.6596 20.5648 15.6596 22.2701 13.9543C23.9931 12.2312 23.9931 9.45354 22.2701 7.73047Z" fill="white"/>
<path d="M29.2675 8.73265C29.1268 8.73265 28.7225 8.71507 28.5818 8.71507C26.5599 8.67997 24.7668 7.87126 23.4482 6.55266C22.1296 5.23407 21.3208 3.44075 21.2856 1.41902C21.2856 1.27834 21.2682 0.873985 21.2682 0.73336C23.7646 0.0827929 26.56 -0.075469 29.1269 0.0299999C29.3555 0.0299999 29.5664 0.117949 29.7248 0.276152C29.8829 0.434414 29.9709 0.645411 29.9709 0.873985C30.0761 3.44063 29.9004 6.23608 29.2675 8.73265Z" fill="white"/>
<path d="M14.7982 16.4332C14.4641 16.7848 13.9016 16.7848 13.5675 16.4332C13.2159 16.0991 13.2159 15.5365 13.5675 15.2025C13.9015 14.8509 14.464 14.8509 14.7982 15.2025C15.1498 15.5365 15.1498 16.0991 14.7982 16.4332Z" fill="white"/>
<path d="M29.2675 8.73266C29.1268 8.73266 28.7224 8.71508 28.5818 8.71508C26.5599 8.67998 24.7668 7.87127 23.4482 6.55267L29.7246 0.276153C29.8828 0.434415 29.9707 0.645411 29.9707 0.873986C30.0761 3.44063 29.9004 6.23609 29.2675 8.73266Z" fill="white"/>
<path d="M22.2701 13.9543C20.5648 15.6596 17.7693 15.6596 16.064 13.9543V13.9367L22.2701 7.73046C23.9931 9.45354 23.9931 12.2312 22.2701 13.9543Z" fill="white"/>
<path d="M14.7981 16.4332C14.4641 16.7848 13.9016 16.7848 13.5674 16.4332L14.7981 15.2025C15.1498 15.5365 15.1498 16.0991 14.7981 16.4332Z" fill="white"/>
</g>
<defs>
<clipPath id="clip0">
<rect width="30" height="30" fill="white"/>
</clipPath>
</defs>
</svg>
