<svg width="23" height="25" viewBox="0 0 23 25" fill="none" xmlns="http://www.w3.org/2000/svg">
<path d="M21.9764 6.43709C21.9635 5.76212 21.9513 5.12449 21.9513 4.50763C21.9513 4.02436 21.5596 3.63257 21.0762 3.63257C17.3339 3.63257 14.4845 2.55705 12.1095 0.247818C11.7697 -0.0826059 11.2291 -0.0824893 10.8894 0.247818C8.51463 2.55705 5.66577 3.63257 1.92364 3.63257C1.44037 3.63257 1.04858 4.02436 1.04858 4.50763C1.04858 5.12461 1.03644 5.76247 1.02349 6.43755C0.903551 12.7189 0.739273 21.3215 11.2129 24.9518C11.3057 24.984 11.4026 25.0001 11.4994 25.0001C11.5963 25.0001 11.6932 24.984 11.786 24.9518C22.2604 21.3213 22.0963 12.7185 21.9764 6.43709ZM11.4995 23.1964C2.51705 19.9334 2.65286 12.7853 2.77339 6.47092C2.78062 6.09196 2.78762 5.72467 2.79252 5.36461C6.29745 5.21667 9.10022 4.15457 11.4995 2.06445C13.8991 4.15457 16.7023 5.21678 20.2075 5.36461C20.2124 5.72455 20.2194 6.09161 20.2266 6.47034C20.347 12.7849 20.4827 19.9333 11.4995 23.1964Z" fill="#2655A9"/>
</svg>
