<svg width="25" height="25" viewBox="0 0 25 25" fill="none" xmlns="http://www.w3.org/2000/svg">
<path d="M12.5 10.3035C11.1268 10.3035 10.0096 11.4208 10.0096 12.794C10.0096 14.1672 11.1268 15.2844 12.5 15.2844C13.8732 15.2844 14.9904 14.1672 14.9904 12.794C14.9904 11.4208 13.8732 10.3035 12.5 10.3035ZM12.5 13.8194C11.9346 13.8194 11.4745 13.3594 11.4745 12.794C11.4745 12.2285 11.9346 11.7685 12.5 11.7685C13.0654 11.7685 13.5255 12.2285 13.5255 12.794C13.5255 13.3594 13.0654 13.8194 12.5 13.8194Z" fill="#2DB165"/>
<path d="M12.5 7.37362C9.51119 7.37362 7.07965 9.80516 7.07965 12.794C7.07965 15.7828 9.51119 18.2143 12.5 18.2143C15.4888 18.2143 17.9204 15.7828 17.9204 12.794C17.9204 9.80516 15.4888 7.37362 12.5 7.37362ZM12.5 16.7494C10.319 16.7494 8.54461 14.9749 8.54461 12.794C8.54461 10.613 10.319 8.83858 12.5 8.83858C14.681 8.83858 16.4554 10.613 16.4554 12.794C16.4554 14.9749 14.681 16.7494 12.5 16.7494Z" fill="#2DB165"/>
<path d="M12.5 4.49254C7.9226 4.49254 4.19858 8.21656 4.19858 12.794C4.19858 17.3714 7.9226 21.0954 12.5 21.0954C17.0774 21.0954 20.8014 17.3714 20.8014 12.794C20.8014 8.21656 17.0774 4.49254 12.5 4.49254ZM12.5 19.6304C8.73038 19.6304 5.66354 16.5636 5.66354 12.794C5.66354 9.02434 8.73038 5.9575 12.5 5.9575C16.2696 5.9575 19.3365 9.02434 19.3365 12.794C19.3365 16.5636 16.2696 19.6304 12.5 19.6304Z" fill="#2DB165"/>
</svg>
